<?xml version="1.0" encoding="UTF-8"?>
<svg id="Camada_2" data-name="Camada 2" xmlns="http://www.w3.org/2000/svg" viewBox="0 0 269.97 304.46">
  <defs>
    <style>
      .cls-1 {
        fill: #ffc72c;
        stroke-width: 0px;
      }
    </style>
  </defs>
  <g id="Camada_1-2" data-name="Camada 1">
    <path class="cls-1" d="M269.97,127.51v-39.8c-.01-2.01-.28-3.98-.81-5.93-.53-1.94-1.3-3.78-2.31-5.52s-2.23-3.32-3.65-4.74c-1.43-1.42-3.01-2.63-4.76-3.64L146.52,3.08c-1.76-1.01-3.6-1.78-5.56-2.3-1.95-.52-3.94-.79-5.96-.79s-4.01.27-5.97.79c-1.95.52-3.81,1.29-5.56,2.3L11.67,67.71c-1.77,1.01-3.38,2.22-4.82,3.65-1.45,1.43-2.68,3.02-3.71,4.78s-1.8,3.61-2.33,5.58c-.54,1.96-.8,3.96-.81,5.99v129.21c.02,2.01.28,3.98.81,5.93.53,1.94,1.3,3.78,2.31,5.52,1.02,1.74,2.23,3.32,3.66,4.74,1.43,1.42,3.01,2.63,4.76,3.64l111.93,64.64c1.75,1.01,3.6,1.77,5.56,2.3,1.96.52,3.94.78,5.97.78s4.01-.26,5.96-.78c1.96-.53,3.81-1.29,5.56-2.3l111.93-64.49c1.74-1.01,3.33-2.21,4.76-3.64,1.42-1.42,2.64-3,3.65-4.74s1.78-3.58,2.31-5.52c.53-1.94.8-3.92.81-5.93v-58.83l-134.98,80.69-75.03-43.31v-86.64l67.35-38.89c1.17-.68,2.4-1.19,3.7-1.54s2.63-.53,3.97-.53,2.67.18,3.97.53,2.54.86,3.7,1.54l67.27,39.23-69.36,39.99c-1.2.7-2.48,1.22-3.82,1.58s-2.71.54-4.1.54-2.76-.18-4.11-.54c-1.34-.36-2.62-.89-3.82-1.58l-49.82-28.72v67.27l58.94,31.55,124.62-71.94c1.76-1.01,3.34-2.23,4.78-3.67,1.43-1.43,2.66-3.02,3.67-4.77,1.01-1.76,1.78-3.61,2.3-5.56.53-1.96.79-3.95.78-5.97Z"/>
  </g>
</svg>