<?xml version="1.0" encoding="UTF-8"?>
<svg id="Camada_2" data-name="Camada 2" xmlns="http://www.w3.org/2000/svg" viewBox="0 0 1229.5 332.14">
  <defs>
    <style>
      .cls-1 {
        fill: #ffc72c;
        stroke-width: 0px;
      }
    </style>
  </defs>
  <g id="Camada_1-2" data-name="Camada 1">
    <path class="cls-1" d="M723.79,33.47c.94-.01,1.88.02,2.82.1s1.87.21,2.8.38c.92.17,1.84.39,2.74.66.9.26,1.79.57,2.66.92.88.35,1.73.74,2.56,1.18.84.44,1.65.91,2.44,1.43.79.52,1.55,1.07,2.28,1.66s1.44,1.21,2.11,1.88c.67.66,1.31,1.35,1.91,2.07.6.72,1.17,1.47,1.7,2.25.53.78,1.02,1.58,1.47,2.41.45.83.86,1.67,1.23,2.54.37.86.69,1.74.97,2.65.28.9.52,1.81.71,2.73s.34,1.85.44,2.79.15,1.88.16,2.82c.01.94-.03,1.88-.11,2.82s-.22,1.87-.4,2.79c-.18.93-.4,1.84-.67,2.74-.27.91-.58,1.79-.93,2.66-.35.88-.75,1.72-1.19,2.56s-.92,1.65-1.44,2.43c-.52.79-1.07,1.55-1.67,2.28-.59.73-1.22,1.43-1.88,2.1-.66.67-1.35,1.3-2.08,1.9-.72.6-1.48,1.17-2.26,1.69-.78.53-1.58,1.02-2.41,1.46s-1.68.85-2.54,1.22c-.87.36-1.76.68-2.65.96-.9.28-1.81.51-2.73.7s-1.85.33-2.79.42c-.94.1-1.88.15-2.82.15-.94,0-1.88-.04-2.82-.13s-1.87-.22-2.79-.41-1.84-.41-2.74-.68-1.79-.59-2.66-.94c-.87-.36-1.72-.76-2.55-1.2-.83-.44-1.64-.92-2.42-1.44-.79-.52-1.54-1.08-2.27-1.68-.72-.6-1.42-1.23-2.09-1.89-.67-.67-1.3-1.36-1.9-2.09-.6-.73-1.16-1.48-1.68-2.27-.53-.78-1.01-1.59-1.45-2.42-.44-.83-.84-1.68-1.21-2.55-.36-.87-.68-1.76-.95-2.66-.28-.9-.5-1.81-.69-2.73-.18-.92-.32-1.85-.41-2.79-.09-.93-.14-1.88-.14-2.81,0-.93.06-1.86.15-2.79s.23-1.84.42-2.76c.18-.91.41-1.81.68-2.7s.58-1.77.94-2.63.75-1.7,1.19-2.52c.44-.82.92-1.61,1.43-2.39.52-.78,1.07-1.53,1.66-2.24.58-.72,1.2-1.41,1.86-2.07s1.34-1.29,2.05-1.89c.72-.59,1.46-1.16,2.23-1.68.77-.52,1.56-1.01,2.38-1.45.82-.45,1.66-.85,2.51-1.22s1.72-.69,2.61-.97c.89-.28,1.78-.52,2.69-.71s1.83-.34,2.75-.45c.93-.1,1.85-.16,2.78-.18Z"/>
    <path class="cls-1" d="M1116.86,191.2c0,25.49,16.99,39.65,37.35,39.65,1.67.07,3.34.03,5.01-.16,1.66-.18,3.3-.48,4.92-.91,1.61-.43,3.19-.98,4.72-1.65,1.54-.67,3.01-1.45,4.42-2.34,1.42-.9,2.76-1.89,4.02-2.98,1.26-1.1,2.43-2.29,3.52-3.56s2.06-2.63,2.94-4.05c.88-1.43,1.64-2.91,2.29-4.45.2-.49.48-.94.85-1.33.37-.39.8-.7,1.28-.93s.99-.36,1.53-.41c.53-.04,1.06.02,1.57.18l35.12,10.73c.57.17,1.09.45,1.55.84.45.39.82.85,1.08,1.38.27.54.42,1.1.45,1.7.04.6-.05,1.18-.26,1.74-8.49,26.48-34.44,51.41-75.05,51.41-47.67,0-85.96-35.09-85.96-84.69s37.33-84.96,84.35-84.96c41.89,0,67.24,24.41,75.73,51.4.2.57.29,1.15.26,1.74s-.19,1.16-.45,1.7-.63,1-1.09,1.39-.97.67-1.55.84l-35.74,10.79c-.52.16-1.05.21-1.59.16-.54-.04-1.06-.19-1.55-.42-.48-.24-.92-.56-1.28-.96-.37-.4-.65-.85-.85-1.36-4.33-10.73-13.88-20.05-30.9-20.05-20.31-.34-36.7,13.82-36.7,39.57Z"/>
    <path class="cls-1" d="M969.32,106.2c-47.64,0-84.97,35.09-84.97,84.69s37.33,84.97,84.97,84.97,84.97-35.43,84.97-84.97-36.99-84.69-84.97-84.69ZM969.32,230.83c-18.32,0-36.03-13.2-36.03-39.91s17.7-39.65,36.03-39.65,36.08,12.55,36.08,39.65-17.39,39.88-36.08,39.88v.03Z"/>
    <path class="cls-1" d="M877.22,154.55c-.09.57-.28,1.1-.58,1.59-.3.49-.68.91-1.14,1.25-.46.34-.97.58-1.53.72-.56.14-1.12.17-1.69.09-3.08-.41-6.18-.6-9.29-.57-19.63,0-37.33,11.67-37.33,43.56v65.52c0,.57-.11,1.13-.33,1.66s-.53,1-.94,1.41-.88.72-1.41.94-1.08.33-1.66.33h-40.28c-.58,0-1.13-.11-1.66-.33s-1-.53-1.41-.94-.72-.88-.94-1.41-.33-1.08-.33-1.66V115.38c0-.57.11-1.13.33-1.66s.53-1,.94-1.41.88-.72,1.41-.94c.53-.22,1.08-.33,1.66-.33h38.66c.57,0,1.13.11,1.66.33.53.22,1,.53,1.41.94s.72.88.94,1.41c.22.53.33,1.08.33,1.66v17.25c8.49-18.04,28.66-23.2,41.52-23.2,4.77.1,9.49.63,14.16,1.59.55.12,1.05.34,1.51.66.46.32.84.71,1.15,1.18.31.47.52.98.63,1.53.1.55.11,1.1,0,1.65l-5.81,38.52Z"/>
    <path class="cls-1" d="M703.97,111.05h40.27c.58,0,1.13.11,1.66.33.53.22,1,.53,1.41.94s.72.88.94,1.41.33,1.08.33,1.66v151.33c0,.57-.11,1.13-.33,1.66s-.53,1-.94,1.41-.88.72-1.41.94-1.08.33-1.66.33h-40.27c-.58,0-1.13-.11-1.66-.33s-1-.53-1.41-.94-.72-.88-.94-1.41-.33-1.08-.33-1.66V115.38c0-.57.11-1.13.33-1.66s.53-1,.94-1.41.88-.72,1.41-.94c.53-.22,1.08-.33,1.66-.33Z"/>
    <path class="cls-1" d="M606.45,107.17c-22.86,0-40.25,10-46.99,20.31v-12.09c0-.57-.11-1.13-.33-1.66-.22-.53-.54-1-.94-1.41s-.88-.72-1.41-.94c-.53-.22-1.08-.33-1.66-.33h-38.55c-.58,0-1.13.1-1.66.32-.54.22-1.01.53-1.41.94-.41.41-.72.88-.94,1.41s-.33,1.09-.32,1.66v212.42c0,.58.11,1.13.33,1.66s.54,1,.94,1.41.88.72,1.4.94c.53.22,1.09.33,1.66.33h40.24c.57,0,1.11-.11,1.63-.33s.98-.52,1.39-.92c.41-.4.72-.85.94-1.37.22-.52.34-1.06.35-1.63v-69.39c7.42,9.01,22.85,16.08,43.47,16.08,44.75,0,76.3-35.09,76.3-84.03.03-47.95-27.98-83.39-74.46-83.39ZM596.48,230.8c-19,0-36.05-13.51-36.05-39.91s16.99-39.65,36.05-39.65,36.37,12.86,36.37,39.65-16.94,39.91-36.26,39.91h-.11Z"/>
    <path class="cls-1" d="M346.14,266.71V47.13c0-.57.11-1.13.34-1.66.22-.53.53-.99.94-1.4s.88-.72,1.4-.94c.53-.22,1.08-.33,1.66-.34h135.95c.58,0,1.13.11,1.66.34.53.22.99.53,1.4.94s.72.88.94,1.4c.22.53.33,1.08.33,1.66v39.31c0,.57-.11,1.13-.33,1.65-.22.53-.54,1-.94,1.4-.41.41-.87.72-1.4.94s-1.08.33-1.66.34h-84.97c-.57,0-1.13.11-1.66.33s-1,.53-1.41.94-.72.88-.94,1.41-.33,1.08-.33,1.66v34.78c0,.57.11,1.13.33,1.66s.53,1,.94,1.41.88.72,1.41.94c.53.22,1.08.33,1.66.33h76.33c.57.02,1.13.15,1.65.38.53.24.98.57,1.38.98.4.42.7.9.9,1.44.21.54.3,1.09.29,1.67v35.94c0,.57-.11,1.13-.33,1.66s-.54,1-.94,1.41-.88.72-1.41.94c-.53.22-1.08.33-1.66.33h-76.33c-.57,0-1.13.11-1.66.33-.53.22-.99.54-1.4.94s-.72.87-.94,1.4c-.22.53-.33,1.08-.33,1.66v35.12c0,.57.11,1.13.33,1.66s.53,1,.94,1.41.88.72,1.41.94c.53.22,1.08.33,1.66.33h85.33c.58,0,1.13.11,1.66.33s1,.53,1.41.94.72.88.94,1.41.33,1.08.33,1.66v39.65c0,.58-.1,1.13-.32,1.66-.22.53-.54,1.01-.94,1.41s-.88.72-1.41.94c-.54.22-1.09.33-1.67.32h-136.2c-.58,0-1.13-.11-1.67-.33-.53-.22-1-.54-1.41-.95-.41-.41-.72-.88-.94-1.41-.22-.54-.33-1.09-.32-1.67Z"/>
    <path class="cls-1" d="M269.97,127.51v-39.8c-.01-2.01-.28-3.98-.81-5.93-.53-1.94-1.3-3.78-2.31-5.52s-2.23-3.32-3.65-4.74c-1.43-1.42-3.01-2.63-4.76-3.64L146.52,3.08c-1.76-1.01-3.6-1.78-5.56-2.3-1.95-.52-3.94-.79-5.96-.79s-4.01.27-5.97.79c-1.95.52-3.81,1.29-5.56,2.3L11.67,67.71c-1.77,1.01-3.38,2.22-4.82,3.65-1.45,1.43-2.68,3.02-3.71,4.78s-1.8,3.61-2.33,5.58c-.54,1.96-.8,3.96-.81,5.99v129.21c.02,2.01.28,3.98.81,5.93.53,1.94,1.3,3.78,2.31,5.52,1.02,1.74,2.23,3.32,3.66,4.74,1.43,1.42,3.01,2.63,4.76,3.64l111.93,64.64c1.75,1.01,3.6,1.77,5.56,2.3,1.96.52,3.94.78,5.97.78s4.01-.26,5.96-.78c1.96-.53,3.81-1.29,5.56-2.3l111.93-64.49c1.74-1.01,3.33-2.21,4.76-3.64,1.42-1.42,2.64-3,3.65-4.74s1.78-3.58,2.31-5.52c.53-1.94.8-3.92.81-5.93v-58.83l-134.98,80.69-75.03-43.31v-86.64l67.35-38.89c1.17-.68,2.4-1.19,3.7-1.54s2.63-.53,3.97-.53,2.67.18,3.97.53,2.54.86,3.7,1.54l67.27,39.23-69.36,39.99c-1.2.7-2.48,1.22-3.82,1.58s-2.71.54-4.1.54-2.76-.18-4.11-.54c-1.34-.36-2.62-.89-3.82-1.58l-49.82-28.72v67.27l58.94,31.55,124.62-71.94c1.76-1.01,3.34-2.23,4.78-3.67,1.43-1.43,2.66-3.02,3.67-4.77,1.01-1.76,1.78-3.61,2.3-5.56.53-1.96.79-3.95.78-5.97Z"/>
  </g>
</svg>